<svg width="200" height="157" viewBox="0 0 200 157" fill="none" xmlns="http://www.w3.org/2000/svg">
  <path
    d="M37.153 98.8397C15.1939 94.0009 -5.61238e-07 83.5726 0 71.4883C7.75413e-07 54.7924 29.0029 41.2577 64.7798 41.2577C100.557 41.2577 129.56 54.7924 129.56 71.4883C129.56 83.5726 114.366 94.0009 92.4066 98.8397C114.366 103.679 129.56 114.107 129.56 126.191C129.56 142.887 100.557 156.422 64.7798 156.422C29.0029 156.422 -7.75413e-07 142.887 0 126.191C5.61238e-07 114.107 15.1939 103.679 37.153 98.8397Z"
    fill="white" />
  <path
    d="M46.2094 92.802C24.2503 87.9632 9.05637 77.5349 9.05637 65.4505C9.05637 48.7546 38.0593 35.2199 73.8362 35.2199C109.613 35.2199 138.616 48.7546 138.616 65.4505C138.616 77.5349 123.422 87.9632 101.463 92.802C123.422 97.6408 138.616 108.069 138.616 120.153C138.616 136.849 109.613 150.384 73.8362 150.384C38.0593 150.384 9.05637 136.849 9.05637 120.153C9.05637 108.069 24.2503 97.6408 46.2094 92.802Z"
    fill="white" />
  <path
    d="M58.2849 84.7517C36.3258 79.9128 21.1319 69.4846 21.1319 57.4002C21.1319 40.7043 50.1348 27.1696 85.9117 27.1696C121.689 27.1696 150.691 40.7043 150.691 57.4002C150.691 69.4846 135.498 79.9128 113.538 84.7517C135.498 89.5905 150.691 100.019 150.691 112.103C150.691 128.799 121.689 142.334 85.9117 142.334C50.1348 142.334 21.1319 128.799 21.1319 112.103C21.1319 100.019 36.3258 89.5905 58.2849 84.7517Z"
    fill="white" />
  <path
    d="M70.3604 77.7079C48.4013 72.869 33.2074 62.4408 33.2074 50.3564C33.2074 33.6605 62.2103 20.1258 97.9872 20.1258C133.764 20.1258 162.767 33.6605 162.767 50.3564C162.767 62.4408 147.573 72.869 125.614 77.7079C147.573 82.5467 162.767 92.975 162.767 105.059C162.767 121.755 133.764 135.29 97.9872 135.29C62.2103 135.29 33.2074 121.755 33.2074 105.059C33.2074 92.975 48.4013 82.5467 70.3604 77.7079Z"
    fill="white" />
  <path
    d="M82.4359 70.6636C60.4768 65.8248 45.2829 55.3965 45.2829 43.3121C45.2829 26.6162 74.2858 13.0815 110.063 13.0815C145.84 13.0815 174.842 26.6162 174.842 43.3121C174.842 55.3965 159.649 65.8248 137.689 70.6636C159.649 75.5024 174.842 85.9307 174.842 98.015C174.842 114.711 145.84 128.246 110.063 128.246C74.2858 128.246 45.2829 114.711 45.2829 98.015C45.2829 85.9307 60.4768 75.5024 82.4359 70.6636Z"
    fill="white" />
  <path
    d="M95.5179 64.6258C73.5588 59.787 58.3649 49.3587 58.3649 37.2744C58.3649 20.5785 87.3678 7.04379 123.145 7.04379C158.922 7.04379 187.925 20.5785 187.925 37.2744C187.925 49.3587 172.731 59.787 150.771 64.6258C172.731 69.4647 187.925 79.8929 187.925 91.9773C187.925 108.673 158.922 122.208 123.145 122.208C87.3678 122.208 58.3649 108.673 58.3649 91.9773C58.3649 79.8929 73.5588 69.4646 95.5179 64.6258Z"
    fill="white" />
  <path
    d="M107.593 57.582C85.6343 52.7432 70.4404 42.3149 70.4404 30.2306C70.4404 13.5347 99.4433 -1.47187e-06 135.22 0C170.997 1.47187e-06 200 13.5347 200 30.2306C200 42.3149 184.806 52.7432 162.847 57.582C184.806 62.4209 200 72.8491 200 84.9335C200 101.629 170.997 115.164 135.22 115.164C99.4433 115.164 70.4404 101.629 70.4404 84.9335C70.4404 72.8491 85.6343 62.4209 107.593 57.582Z"
    fill="white" />
</svg>